# xmcd CD database file
#
# Track frame offsets:
#	150
#	24233
#	44155
#	63755
#	85355
#	103123
#	122478
#	145326
#	170106
#	195900
#
# Disc length: 2965 seconds
#
# Revision: 4
# Processed by: cddbd v1.5.1PL0 Copyright (c) Steve Scherf et al.
# Submitted via: CDex 1.50beta10
#
DISCID=860b930a
DTITLE=林笛 - 迷路新娘
DYEAR=2004
DGENRE=New Age
TTITLE0=依蘭依蘭
TTITLE1=嫁
TTITLE2=高地山歌
TTITLE3=謎語銅鏡
TTITLE4=失語叢林
TTITLE5=阿加堥萊
TTITLE6=愛
TTITLE7=慕拉沙貝大戰
TTITLE8=陽光褪去了顏色
TTITLE9=療治時間的創傷
EXTD=YEAR: 2004
EXTT0=
EXTT1=
EXTT2=
EXTT3=
EXTT4=
EXTT5=
EXTT6=
EXTT7=
EXTT8=
EXTT9=
PLAYORDER=
